<svg xmlns="http://www.w3.org/2000/svg" version="1.1" xmlns:xlink="http://www.w3.org/1999/xlink" width="1000" height="1000"><style>
    #light-icon {
      display: inline;
    }
    #dark-icon {
      display: none;
    }

    @media (prefers-color-scheme: dark) {
      #light-icon {
        display: none;
      }
      #dark-icon {
        display: inline;
      }
    }
  </style><g id="light-icon"><svg xmlns="http://www.w3.org/2000/svg" version="1.1" xmlns:xlink="http://www.w3.org/1999/xlink" width="1000" height="1000"><g><g transform="matrix(15.625,0,0,15.625,0,0)"><svg xmlns="http://www.w3.org/2000/svg" version="1.1" xmlns:xlink="http://www.w3.org/1999/xlink" width="64" height="64"><svg width="64" xmlns="http://www.w3.org/2000/svg" height="64" id="screenshot-f2623c8b-9657-80a0-8006-8e6e246b7d08" viewBox="0 0 64 64" xmlns:xlink="http://www.w3.org/1999/xlink" fill="none" version="1.1"><g id="shape-f2623c8b-9657-80a0-8006-8e6e246b7d08"><g class="frame-container-wrapper"><g class="frame-container-blur"><g class="frame-container-shadows"><g fill="none"><g class="fills" id="fills-f2623c8b-9657-80a0-8006-8e6e246b7d08"><rect rx="0" ry="0" x="0" y="0" width="64" height="64" transform="matrix(1.000000, 0.000000, 0.000000, 1.000000, 0.000000, 0.000000)" class="frame-background"></rect></g><g class="frame-children"><g id="shape-f2623c8b-9657-80a0-8006-8e6e246b7d09"><g class="fills" id="fills-f2623c8b-9657-80a0-8006-8e6e246b7d09"><path d="M-4.547473508864641e-13,4C-4.547473508864641e-13,1.7923583984375,1.792327880859375,0,4,0L60,0C62.207672119140625,0,64,1.7923583984375,64,4L64,60C64,62.2076416015625,62.207672119140625,64,60,64L4,64C1.792327880859375,64,-4.547473508864641e-13,62.2076416015625,-4.547473508864641e-13,60L-4.547473508864641e-13,4" style="fill: rgb(49, 49, 48); fill-opacity: 1;"></path></g></g><g id="shape-f2623c8b-9657-80a0-8006-8e6e246b7d0a"><g class="fills" id="fills-f2623c8b-9657-80a0-8006-8e6e246b7d0a"><path d="M12.6971435546875,38.46795654296875L12.6971435546875,29.88873291015625L12.6971435546875,25.565185546875L12.6971435546875,12.6971435546875L25.5712890625,12.6971435546875L38.4444580078125,12.6971435546875L38.4444580078125,25.565185546875L25.5712890625,25.565185546875L25.5712890625,29.88873291015625L34.15447998046875,29.88873291015625L34.15447998046875,38.46795654296875L25.5712890625,38.46795654296875L25.5712890625,51.3028564453125L12.6971435546875,51.3028564453125L12.6971435546875,38.46795654296875M42.7200927734375,12.6971435546875L51.3028564453125,12.6971435546875L51.3028564453125,38.43426513671875L42.7200927734375,38.43426513671875L42.7200927734375,12.6971435546875M42.7200927734375,42.70703125L51.3028564453125,42.70703125L51.3028564453125,51.2862548828125L42.7200927734375,51.2862548828125L42.7200927734375,42.70703125" style="fill: rgb(248, 244, 237); fill-opacity: 1;"></path></g></g></g></g></g></g></g></g></svg></svg></g></g></svg></g><g id="dark-icon"><svg xmlns="http://www.w3.org/2000/svg" version="1.1" xmlns:xlink="http://www.w3.org/1999/xlink" width="1000" height="1000"><g><g transform="matrix(15.625,0,0,15.625,0,0)"><svg xmlns="http://www.w3.org/2000/svg" version="1.1" xmlns:xlink="http://www.w3.org/1999/xlink" width="64" height="64"><svg width="64" xmlns="http://www.w3.org/2000/svg" height="64" id="screenshot-f2623c8b-9657-80a0-8006-8e706c0a2c4c" viewBox="0 0 64 64" xmlns:xlink="http://www.w3.org/1999/xlink" fill="none" version="1.1"><g id="shape-f2623c8b-9657-80a0-8006-8e706c0a2c4c"><g class="frame-container-wrapper"><g class="frame-container-blur"><g class="frame-container-shadows"><g fill="none"><g class="fills" id="fills-f2623c8b-9657-80a0-8006-8e706c0a2c4c"><rect rx="0" ry="0" x="0" y="0" width="64" height="64" transform="matrix(1.000000, 0.000000, 0.000000, 1.000000, 0.000000, 0.000000)" class="frame-background"></rect></g><g class="frame-children"><g id="shape-f2623c8b-9657-80a0-8006-8e706c0a2c4d"><g class="fills" id="fills-f2623c8b-9657-80a0-8006-8e706c0a2c4d"><path d="M-2.2737367544323206e-13,4C-2.2737367544323206e-13,1.7923583984375,1.7923583984375,0,4,0L60,0C62.2076416015625,0,64,1.7923583984375,64,4L64,60C64,62.2076416015625,62.2076416015625,64,60,64L4,64C1.7923583984375,64,-2.2737367544323206e-13,62.2076416015625,-2.2737367544323206e-13,60L-2.2737367544323206e-13,4" style="fill: rgb(248, 244, 237); fill-opacity: 1;"></path></g></g><g id="shape-0e9d6679-038d-80b0-8006-9f3b2b48cc75"><g class="fills" id="fills-0e9d6679-038d-80b0-8006-9f3b2b48cc75"><path d="M12.6971435546875,38.46795654296875L12.6971435546875,29.88873291015625L12.6971435546875,25.565185546875L12.6971435546875,12.6971435546875L25.5712890625,12.6971435546875L38.4444580078125,12.6971435546875L38.4444580078125,25.565185546875L25.5712890625,25.565185546875L25.5712890625,29.88873291015625L34.15447998046875,29.88873291015625L34.15447998046875,38.46795654296875L25.5712890625,38.46795654296875L25.5712890625,51.3028564453125L12.6971435546875,51.3028564453125L12.6971435546875,38.46795654296875M42.7200927734375,12.6971435546875L51.3028564453125,12.6971435546875L51.3028564453125,38.43426513671875L42.7200927734375,38.43426513671875L42.7200927734375,12.6971435546875M42.7200927734375,42.70703125L51.3028564453125,42.70703125L51.3028564453125,51.2862548828125L42.7200927734375,51.2862548828125L42.7200927734375,42.70703125" style="fill: rgb(49, 49, 48); fill-opacity: 1;"></path></g></g></g></g></g></g></g></g></svg></svg></g></g></svg></g></svg>