<svg xmlns="http://www.w3.org/2000/svg" fill="none" viewBox="0 0 24 24" id="Bluesky-Logo--Streamline-Sharp" height="24" width="24">
  <g id="bluesky-social-media">
    <path id="Union" stroke="#313130" d="M4.7841 17.0033c0.45831 -0.545 1.12985 -1.1623 2.29696 -2.0002 -2.49942 -0.3966 -4.86776 -1.751 -5.26249 -4.5646C1.30329 7.67548 1.40583 4.786 1.25 1.9834 5.76548 3.33482 9.53654 5.81487 12 10.0198c2.4635 -4.20493 6.2345 -6.68498 10.75 -8.0364 -0.1558 2.8026 -0.0533 5.69208 -0.5686 8.4551 -0.3947 2.8136 -2.763 4.168 -5.2625 4.5646 1.1671 0.8379 1.8387 1.4552 2.297 2.0002 0.7054 0.8389 0.563 2.3382 -0.0865 2.9577 -0.7775 0.8407 -1.2731 1.2137 -1.7815 1.576 -0.7673 0.4443 -2.204 0.9609 -3.3937 -0.3811 -0.8967 -1.0115 -1.1467 -1.3028 -1.9542 -2.435 -0.8076 1.1322 -1.0576 1.4235 -1.9542 2.435 -1.1897 1.342 -2.62643 0.8254 -3.39366 0.3811 -0.50842 -0.3623 -1.00406 -0.7353 -1.78152 -1.576 -0.6495 -0.6195 -0.79194 -2.1188 -0.08652 -2.9577Z" stroke-width="2"></path>
  </g>
</svg>
