<svg xmlns="http://www.w3.org/2000/svg" fill="none" viewBox="0 0 24 24" id="Github-Logo--Streamline-Sharp" height="24" width="24" aria-hidden="true">
  <g id="github-logo--github-logo-code-branch-developer-portal">
    <path id="Ellipse 1894" stroke="#313130" d="M12 1C5.92487 1 1 5.92487 1 12c0 5.0351 3.38299 9.2801 8 10.5859l1 -6.2884c-2.75563 -0.5958 -4.49992 -2.4671 -4.49992 -4.7739 0 -1.2809 0.46268 -2.78371 1.5 -3.67404V5.38981l2.92263 1c0.65369 -0.16225 1.35199 -0.25 2.07729 -0.25 0.7253 0 1.4236 0.08775 2.0773 0.25l2.9226 -1v2.45975c1.0373 0.89033 1.5002 2.39304 1.5002 3.67394 0 2.3068 -1.7443 4.1782 -4.4998 4.774L15 22.5859c4.617 -1.3058 8 -5.5508 8 -10.5859 0 -6.07513 -4.9249 -11 -11 -11Z" stroke-width="2"></path>
    <path id="Vector 4324" stroke="#313130" d="M4.81104 17.5655c0.70781 0 1.10528 -0.0663 1.81309 0.2876 0.71625 0.3581 0.79237 0.7511 1.53521 0.9187 0.47503 0.1072 1.29387 -0.1767 1.6517 -1.0617" stroke-width="2"></path>
  </g>
</svg>
