<svg xmlns="http://www.w3.org/2000/svg" viewBox="0 0 100 640"><path fill="#d0e6df" d="M0 0v76.8q4.3 3.7 9 6.6c7.3 4.8 15.9 7 24.4 8q5.5.6 11.2.4 6-.1 11.8.4c3.4.3 7-.7 9.8-2 3.5-1.6 6.8-4.1 10.6-5 6.4-1.6 10.8-7.7 15.7-12 2.4-2 4.4-5.1 6.4-7l1.1-1.1V0zm55.3 119.8q-4.5.5-8.6 2.2c-4.6 2.3-10 2.8-14.8 4.8a61 61 0 0 0-8.4 4.3c-2.9 1.7-4.8 4.3-7 6.6a49 49 0 0 0-6.9 8.8c-1.7 2.7-4.6 4.9-5.5 8a51 51 0 0 0-2.5 17.1c.4 7.5.4 15 2.3 22.4 2.1 7.9 7 14.4 11.6 21 1.2 1.7 2.2 2 4 3.4 4.3 3 8.1 6.8 13 8.8l8 3.1c3.2 1.3 6.4 2 9.3 3.7a24 24 0 0 0 8.3 2.6q5.7 1.1 10.9-.1c3.3-.9 6-2.7 8.9-4.2 3.8-2 7-5 10.5-7.3 3-2 5.6-4.6 8.7-6.5q1.6-1 2.9-2.4V138c-2-1.6-4.2-3-5.7-5.2-3.2-4.3-9.2-5.6-14-8-2.3-1.1-5.3-1.7-7.3-2.6-2.6-1.2-5.6-1-8.2-1-3.3-.2-6.5-1-9.5-1.3M0 244.8v84.5l9.8 8c20 16 40.5 31.2 60 47.7q14.8 12.2 28.7 25.4.7.1 1.5-1v-96l-2.4-2.8c-2.8-4-6.2-7.5-9.2-11.3-.9-4-3.2.8-5.4.7-14-7-26.1-16.7-39-25.2-5.1-3-9.6-6.6-14.6-9.6L8.7 250.7q-4.4-2.9-8.7-6m11.4 160.8c-3.8.5-7.9 1.2-11.4 2.9V558l3.8 1.8c3.4 2 7.4 2.9 11.4 3.6 5.2.8 9.9 1 14.6-.2 4.5-1.1 8.2-3.6 12.1-5.7 5.1-2.7 9.4-6.7 14.2-9.9 4.1-2.7 7.7-6 11.9-8.7 7.7-4.8 10.3-14.9 15-22.6 2.2-3.5 3.4-7.4 5-11.1q2.2-6.3 3.2-12.9a62 62 0 0 0-2.1-28c-1.1-4-2.9-7.7-4.4-11.5q-2.7-6-4.7-12.1a21 21 0 0 0-6.2-9c-3.1-3-7-5.2-9.7-8.7-4.2-5.8-12.4-7.6-18.9-10.8-3-1.5-7-2.2-9.8-3.5-3.5-1.6-7.6-1.3-11.2-1.4-4.4-.2-8.7-1.3-12.8-1.7M42.6 594c-7.4.2-14.6 2-21.8 3.4-2.6.6-3.4 1.5-5.9 3-5 3-10.5 5.4-14.9 9.3V640h100v-18.8c-1.5-2.8-2.7-6-5.2-8a63 63 0 0 0-18.3-10.9c-8.7-3-17.3-6.6-26.5-7.9q-3.8-.4-7.4-.3"/></svg>
