<?xml version="1.0" encoding="UTF-8"?>
<svg width="100" height="640" fill="none" version="1.1" viewBox="0 0 100 640" xmlns="http://www.w3.org/2000/svg">
 <defs>
  <clipPath id="clipPath69">
   <rect width="100" height="640" rx="0" ry="0"/>
  </clipPath>
 </defs>
 <path d="m0 0v170.39c8.6814-7.6717 17.041-15.712 25.248-23.896 6.982-5.1728 15.492-20.968 23.807-9.168 11.724 16.401 21.116 34.356 32.711 50.873 6.1872 8.8591 12.178 17.906 18.234 26.738v-208c-4.9209 2.036-9.8439 4.0615-14.771 6.0664-3.4731 1.0046-8.0894 5.3349-9.5137-0.30274-2.1557-4.2347-4.3154-8.469-6.4707-12.707h-69.244zm50.254 234.63c-12.247 0.51929-22.611 13.932-33.752 20.215-5.4808 4.292-10.983 8.5528-16.502 12.787v245.07c3.2279 3.1177 6.4689 6.2205 9.7285 9.3027 9.5395 7.2983 16.579 19.953 28.883 22.457 12.182-9.1284 20.657-23.856 33.637-32.951 9.9267-9.7607 18.745-20.571 27.752-31.215v-205.31c-6.2257-5.5425-12.472-11.061-18.76-16.531-10.043-8.1958-18.878-18.464-30.986-23.816zm-13.656 336.59c-12.054 6.3486-24.307 12.309-36.598 18.191v50.594h69.244c-11.508-22.628-22.875-45.359-32.646-68.785z" clip-path="url(#clipPath69)" fill="#d5ead6"/>
</svg>
