<svg xmlns="http://www.w3.org/2000/svg" fill="none" viewBox="0 0 100 300"><defs><clipPath id="a"><rect width="100" height="300" rx="0" ry="0"/></clipPath></defs><rect width="100" height="300" fill="#841b3d" rx="0" ry="0"/><path fill="#ae1043" d="M99.43-37q-.3-.02-.51.51c-6.38-.02-12.78.22-19.15.25-.62 3.93-.42 8.02-.71 12.02-.85 16.25-1.5 32.52-1.86 48.8-.57 12.82-.66 25.67-1.14 38.5C75.16 78.03 74.23 93 74 108c10.34-.66 20.68-1.24 30.98-2.34.09-3.94-.2-7.88-.26-11.83-.09-13.78-.01-27.57-.75-41.34-1.71-29.17-3.31-58.36-3.7-87.58.38-.66-.27-1.92-.84-1.9M15.82-6q-.2-.01-.25.1c-.04.1-1.18.81-2.25 1.4q-1.32.77-2.61 1.6a7 7 0 0 0-.74.52c-.23.2-.7.28-.77.13a2 2 0 0 0-.55-.25 87 87 0 0 1-7.11-2.63q-.45-.2-.52-.15H1v.04c0 .21-1.43 3.02-1.74 3.4-.05.06-.4.7-.77 1.41-.37.72-.74 1.38-.82 1.47-.5.64-3.34 1-8.61 2.95-.75.28-1.27.75-1.15 1.03.03.09.15.52.25.96.32 1.37.52 2.1.66 2.4.28.61.68 2.54.78 2.66h.01q.08.02.09.25c0 .13.04.27.1.3.2.12.1.62-.2 1.16-.63 1.15-1.2 2.23-2.06 3.3-.04.03-.13.16-.2.3l-.23.35a7 7 0 0 0-1.1 2.02c0 .17.18.71.4 1.19.81 1.74 1.5 3.47 2.52 5.16.2.23.51.8.5.9h-.02a4 4 0 0 0-.21 1.08l-.17 1.33a25 25 0 0 0-.27 2.63c-.01.6.02.7.26.94.14.14.48.37.75.51s.52.28.55.32c.05.06.27.17 1.76.92.44.22.83.44.86.5q.07.08.25.09c.1 0 .2.03.22.07a20 20 0 0 0 2.29 1.13c.14 0 .53.47.82 1 .58 1.05 1.21 1.97 1.77 3 .42.7.67 1.13.9 1.55.28.5.73.79 1.14.71.17-.03 1.12-.15 2.1-.26a28 28 0 0 0 4.66-.87c.53-.17 1.1-.18 1.1-.02.03.05.23.14.49.2.1.03.5.2 3.7 1.62.35.16.7.29.77.29s.24.07.38.15c.54.3.65.22 1.66-1.11.53-.7 1.7-2.16 2.59-3.26l1.63-2 .53.06c1.27.16 2.76.57 4.26.52l.88-.02.38-.56a8 8 0 0 0 .76-1.27c.67-1.15 1.17-2.4 1.75-3.6.08-.17.15-.37.15-.43.02-.13.8-.7.95-.7.05 0 .28-.14.52-.3.89-.58 3.71-1.92 4.12-2.31.19-.18.19-.2-.13-1.17a70 70 0 0 1-.89-3.14c-.3-1.19-.59-2.25-.62-2.37q-.07-.2.66-1.67a39 39 0 0 0 1.5-3.33c.42-.98.77-1.88.77-2q.01-.23-.54-.62c-.3-.2-.7-.52-.9-.7-.67-.59-1.6-1.14-3.77-2.76-.2-.16-.45-.28-.55-.28-.22 0-.56-.56-.4-.65.24-.25.03-6.82-.24-7.36-.09-.19-.24-.27-.59-.33A303 303 0 0 1 20.9-.03a1 1 0 0 1-.46-.33c-.08-.11-3.75-5.1-4.02-5.4a1 1 0 0 0-.6-.24m50.07 0q-.83 0-1.67.1c-.36.01-.72.11-1.08.14-.37.06-.77.08-1.16.19-.75.1-1.5.29-2.26.45-.27.2-.66-.2-.87.31-.35 1.93-.62 3.94-.98 5.85-.17 1.29-.4 2.52-.57 3.79-.24 1.44-.44 2.93-.68 4.37a38 38 0 0 1-.54 3.27c0 .08-.13.37-.05.41.35.16.71-.03 1.07.11.31-.01.67-.07.94-.04s.6 0 .87-.02c.26.13.62-.22.83.07.37-.07.75-.04 1.12-.1q.4.06.8-.02c.18.11.56-.05.83.03.33 0 .6-.07.93 0q.45-.06.94 0c.3-.02.61.02.9-.06.28 0 .6.1.84-.01q.8-.04 1.6-.12.41 0 .75-.07c.33.04.68 0 1.02 0 .7 0 1.4.05 2.1.03.24-.07.55-.13.76-.09.33.01.62-.56.79-1.28a22 22 0 0 1 .3-2.01q.56-3.25 1.18-6.43c.02-.48.15-.63.22-1.2.14-.67.3-1.3.4-2 .1-.68.29-1.28.38-1.93.09-.76.3-1.47.4-2.18q-1.12-.12-2.25-.37c-.96-.18-1.92-.47-2.88-.6Q68.38-6 65.88-6M40.84 2c-.32.09-.6.33-.9.47-.63.38-1.15.89-1.67 1.4q-.42.38-.65.85-.2.54-.32 1.09c-.07.6-.26 1.17-.3 1.76.04.53.07 1.06.25 1.56.24.74.83 1.32 1.46 1.79.34.26.69.55 1.08.75.38.08.67.27 1.01.3.28.08.56-.04.81.01.4.04.78-.14 1.19-.1.43-.05.83-.23 1.23-.38l.6-.3q.53-.27.91-.73.3-.43.59-.9.37-.55.62-1.17c.16-.3.23-.67.24-1.02.05-.61-.1-1.2-.24-1.8a5 5 0 0 0-.92-1.47c-.3-.35-.56-.73-.93-1.01-.3-.31-.71-.43-1.1-.6-.39-.1-.76-.25-1.16-.32a5 5 0 0 0-1.8-.17m10.34 13c-.21 0-.44 0-.79.02-1.65.1-3.27.45-4.89.74l-.54.13c-.19.04-.4.1-.47.13-1.3.47-2.5.84-3.67 1.7a10.5 10.5 0 0 0-3.25 3.22c-1.15 1.7-1.77 2.73-1.77 3.09q0 .08-.05.12c-.07.04-.36.87-.46 1.29-.25 1-.36 3.93-.24 6.55.17 3.78.23 4.54.43 5.4a16 16 0 0 0 1.12 3.47 7 7 0 0 0 .96 1.67c0 .06.75 1.1.97 1.36q.15.17.16.23c0 .13.34.37 2.22 1.56 1.02.64 3.05 1.56 4.05 1.82a24 24 0 0 0 5.87.5c2.2-.03 3.3-.2 4.9-.76a20 20 0 0 0 4.73-2.65c.8-.54 2.26-2.04 2.26-2.33q.01-.06.08-.15c.9-1.26 1.42-3.16 2.1-4.57.08-.17.14-.34.15-.38 0-.06.34-1.03.43-1.2.16-.33.4-1.36.47-1.97.07-.63.07-.75-.02-.99-.05-.13-.1-.26-.13-.29a4 4 0 0 1-.19-1.12q0-.3-.1-.4-.05-.06-.06-.1h.02v-.01a5 5 0 0 0-.14-1.33l-.27-1.5a.4.4 0 0 0-.07-.2v-.01h-.01v-.01c-.1-.11-.2-1.26-.31-1.46a3 3 0 0 0-.25-.78l-.1-.25c-.15-.7-2.2-4.78-2.21-4.78-.03 0-.13-.12-.2-.26a5.4 5.4 0 0 0-1.83-2 2 2 0 0 0-.34-.27l-.34-.26c-.53-.62-4.3-2.39-5.5-2.4-.11 0-.22-.03-.24-.07q-.06-.05-.28-.06a1 1 0 0 1-.3-.06 1 1 0 0 0-.3-.1c-.14-.01-.55-.1-.91-.17a4 4 0 0 0-.7-.1M-2.31 48c-.19.1-.26.39-.32.62.2.63-.15 1.92.47 2.2.31.22-.56.34-.14.67-.09.7.15 1.3.12 1.97q.04 1.5 0 3.02c.09 1 .1 2-.15 2.95.39.7.11 1.82.12 2.67.25.63-.03 1.65-.01 2.45q.1 1.42-.02 2.8c-.14 1.1.04 2.26-.14 3.37-.09 2.37-.07 4.74-.28 7.1-.2 1.02.07 2.08-.12 3.1.16 1.73-.17 3.44-.2 5.16-.09.91.12 2.25 1.04 1.77.7.1 1.43.55 2.09.26.72.22 1.46.27 2.18.34.83.08 1.64.31 2.47.32.7-.2 1.75.7 2.17-.12.1-2.38-.05-4.77-.1-7.16-.16-3.89-.1-7.78-.18-11.67-.04-4.63-.06-9.27-.16-13.9 0-2.21-.18-4.4-.2-6.61.19-1.31-1.14-.78-1.77-.96-2.29-.1-4.58-.34-6.87-.35M48 51.15c-12.3-.52-24.69.5-37 .18.06 6.56.54 13.3.98 19.9.6 3.47.14 7.73 1.18 10.71l.67.06c11.35-.43 22.87.28 34.13-.87-.43-9.98-.19-20 .04-29.98m4.74.85c-.36.23-.16.8-.32 1.15q-.25 1.73-.46 3.47c-.05.75-.17 1.49-.25 2.23l-.2 1.65c-.02.36-.22 1.08-.06 1.27-.26.45-.12 1.07-.22 1.55.02.6-.1 1.2-.12 1.78.03.57-.18 1.15-.08 1.72 1.44.2 2.9.22 4.35.38 2.23.15 4.46.37 6.7.47 2.25.13 4.5.13 6.74.3.17 0 .37.07.52 0 .06-1.06.07-2.12.16-3.18.16-3.44.28-6.89.47-10.33 0-.68.07-1.37 0-2.04-3.5.01-7-.11-10.5-.2-2.25-.02-4.49-.23-6.73-.22m1.19 21q-.25 2.7-.46 5.4c-.26 1.9-.07 3.94-.64 5.78-2.82.18-5.59.76-8.37 1.2-2.9.61-5.7 1.49-8.47 2.53-.97.19-1.76.9-2.49.98-2.46 1.5-4.27 3.94-5.77 6.43-1.57 3.93-3.2 7.92-3.68 12.19.04 2.82-.27 5.7.27 8.48.58 3.19 1.22 6.4 2.75 9.26 2.17 3.43 4.63 6.94 8.3 8.7.76.6 1.73.78 2.43 1.29 1.4.5 2.74 1.35 4.2 1.62 3.55 1.24 7.26 2.22 10.91 3.21.92.44 0 1.98.15 2.87.15.82-.7 2.41.1 2.73 4.57.71 9.2 1.02 13.73 2q1.1.25 2.2.33c.08-5.8.09-11.6.28-17.38-.01-7.46-.16-14.91-.05-22.36.22-8.66.15-17.32.4-25.97.24-2.7-.25-5.43.28-8.09A508 508 0 0 1 53.93 73M17 94l-.87.04c-2.01.1-4.49.17-7.2.24-3.4.07-5.35.14-7.88.27a630 630 0 0 1-12.7.55H-12l.05 1.16c.05 1.53.07 1.84.15 2.37.13 1 .15 1.48.25 6.93.12 6.85.1 8.96-.13 18.52-.1 3.73-.1 6.88 0 8.33.03.68.08 1.3.1 1.38.04.22.23.18.43-.1.3-.42.8-1 2.97-3.34l1.53-1.67c.37-.41.43-.45.55-.39a85 85 0 0 0 4.14 3.13c.96.7 1.15.84 1.62 1.24l1.06.94c.2.18.4.34.46.34s.2-.11.3-.24c1.05-1.22 6.42-5.8 6.8-5.8q.12 0 .2.08a27 27 0 0 0 1.9 1.46c.1.1 1.17.89 1.69 1.26a4 4 0 0 1 .58.44q.07 0 .17.12l.29.2a14 14 0 0 0 .95.69 22 22 0 0 1 2.29 1.79c.06.1.16.07.13-.05a45 45 0 0 1-.07-2.34c-.04-2.2.01-4.57.18-8.61.15-3.48.16-3.97.18-8.23.05-7.4.14-15.88.2-18.71zm29.64.1 5.17.23a14 14 0 0 1 5.27 2.54c.79.46 1.6 1.2 2.01 1.58 1.17.62 2.3 1.51 3.2 2.54.81.55 1.16 1.74 1.55 2.3.4 1.76 1.2 3.5 1.43 5.34.54 1.72.24 3.49.05 5.24-.6 2.65-1.8 5.13-2.57 7.74-1.35 1.54-2.66 3.3-4.47 4.32-2.01 1.17-4.07 2.38-6.35 2.86-1.72.73-3.47.51-5.26.46-2.12-.97-4.47-1.47-6.64-2.36a5 5 0 0 1-1.89-1.42c-1.54-.83-2.47-2.46-3.57-3.8-1.22-1.74-1.73-3.88-2.47-5.88-.89-2.21-.5-4.6-.38-6.9.25-1.82-.1-3.86.74-5.5.24-1.41 1.4-2.18 2.33-3.1a66 66 0 0 1 6.9-4.27c1.5-1.06 3.56-.73 4.95-1.92M98.1 109c-.85 0-1.74.03-1.83.09-.04.04-.4.1-.79.12-.97.06-1.68.17-2.51.38l-1.02.23c-.81.11-5.38 1.81-5.39 2.13q0 .05-.1.06c-.12 0-.58.24-1.04.55-.17.11-.37.23-.45.25-.02.01-2.87 1.95-4.19 3.8l-.96 1.27-.33.46c-.1.16-.21.31-.24.34-.1.08-1 1.88-1.71 3.45l-.47.99a3 3 0 0 0-.25.6q0 .09-.05.12h-.02c-.04.02-.11.15-.17.31-.06.17-.27.67-.47 1.1-.8 1.75-.88 1.97-1.5 3.71-.5 1.39-.62 1.9-.62 2.5 0 .82.18 2.14.46 3.42.41 1.9.64 2.47 1.73 4.5.96 1.75 1.15 2.08 1.39 2.34l.66.77c.61.73 2.18 2.4 2.63 2.8l.7.63c.77.71 3.03 2.16 4.06 2.67l1.45.74c3.95 2.02 8.04 2.04 12.2.96.7-.15 1.59-.46 2.29-.8a20 20 0 0 0 1.9-1.02c.46-.4 3.93-2.32 6.02-4.93a11 11 0 0 0 1.35-2.04c.05-.02.15-.19.25-.4s.2-.4.23-.43c.1-.08.56-1.1.56-1.22q0-.1.07-.11t.08-.13-.1-.12l-.04-.01h-.01v-.01q0-.03.05-.05c.05-.03.11-.25.15-.48.23-1.6.66-3.2.74-4.83.07-.08.12-.62.15-1.52.06-1.55.02-5.7-.05-6.02a7 7 0 0 1-.07-.83 24 24 0 0 0-.27-3.09c-.7-2.22-.85-4.62-2.53-6.56q-.05-.04-.06-.14c0-.14-.34-.39-.37-.45h.01v-.01h.01v-.01l-.06-.1q-.1-.14-.16-.02l-.02.03h-.02v-.01l-.02-.08c0-.58-3.5-3.72-3.59-3.72-.04-.01-.2-.12-.34-.25-.15-.14-.31-.25-.36-.25q-.08 0-.12-.07a4 4 0 0 0-1.37-.65v-.03c-.01-.05-.14-.13-.3-.18q-.32-.1-.36-.17v-.02q-.05-.05-.2-.05t-.2-.06v-.01c-.05-.08-.64-.14-2.14-.24a2 2 0 0 1-.68-.1v-.01h.01v-.02a9 9 0 0 0-1.6-.07m14.73 17.78h.01l.02.04q.03.11 0 .16h-.01v.01h-.01l-.02-.12zM2 139c.63 1.22 1.4 2.41 2.08 3.63 2.05 3.45 3.87 6.96 6.04 10.37 2.06-.05 4.18-.19 6.27-.26 8.2-.18 16.42-.03 24.63-.16 3.25 0 6.51-.19 9.76-.03l.22.06-.02-.18c-1.18-2.51-3.04-4.84-4.35-7.33-.79-1.2-1.23-2.57-2.2-3.67q-3.29-.16-6.58-.41-6.98-.34-13.95-.75c-5.01-.33-10.05-.57-15.07-.89-2.28-.07-4.55-.41-6.83-.38M.07 150c-.8-.02-1.48 0-1.65.2.1 3-.43 5.99-.49 8.98-.44 11.92-.38 23.85-1.35 35.76-.35 6.27-.47 12.54-.87 18.81-.18 7.06-.05 14.13-.59 21.2A99 99 0 0 1-6 245.51c.08.21.96.13 1.3.17 8.54-.03 17.07.2 25.6.31.49-2.73 1.43-5.43 1.94-8.15.54-3.11 1.62-6.19 2.53-9.28.6-1.29.86-2.6 1.33-3.93 1.06-.87-1-.55-1.53-1.04-1.18-4.26-1-8.57-1.45-12.85-.29-1.6-.2-3.2-.48-4.8-.07-2.32-.29-4.64-.4-6.97a64 64 0 0 1-.3-6.4q-5.3.12-10.62.1c-2.52-.23-6.75.47-8.05-.5-.46-5.7.03-11.42-.41-17.13-.33-7.92-.5-15.83-.63-23.75-.24-.37.49-1.15-.46-1.21-.6.01-1.5-.06-2.3-.08m77.92 6.14c-9.5-.39-19 .12-28.5.45-1.58.17-3.28-.01-4.77.25-1.28-.4-.41 1.33-.6 2.08.24 8.53.98 17.05 1.16 25.6.21 10.14.71 20.29.86 30.44 3.6 0 7.2-.1 10.8 0 3.92.1 7.84 0 11.75 0 6.33-.1 12.64-.32 18.97-.32 4.78-.18 9.57-.2 14.34-.48l-.01-9.38c-.08-16.11.09-32.24-.22-48.35-2.35-.08-4.74-.04-7.1-.08-2.14-.07-4.48.07-6.48-.13-3.35.12-6.8-.05-10.2-.08M24.82 158l-.22.2c-.1.11-.22.2-.25.21l-.2.15c-2.5 2.12-5.56 3.77-8.17 5.79-.16.1-.32.26-.48.34a52 52 0 0 0-3.82 3 38 38 0 0 0-2.99 2.92q0 .06-.03.07h-.01c-.07.02-.61.52-.65.6 0 .04.4.56.52.67l.18.23c.08.11.2.27.28.35 1.35 1.55 2.57 3.22 3.9 4.78l.72.9q2.28 2.79 4.54 5.59a47 47 0 0 0 1.62 1.97c.2.23.26.28.3.2.04-.1 1.58-1.28 2.72-2.08a89 89 0 0 0 2.35-1.8l.8-.7c.95-.83 3.6-2.99 4.85-4.03a97 97 0 0 0 4.29-3.85c1.37-1.27 1.45-1.36 1.45-1.55.01-.84.13-4.23.23-6.43.1-2.61.25-6.17.25-6.54v-.38l-1.55-.03a198 198 0 0 1-6.2-.28l-3.9-.27zm46.25 2.96q.72 0 1.4.12c1.08.23 2.47.46 3.65.8q1.7.4 3.34 1.33c4.8 2.39 9.25 5.67 12.3 10.13 2.04 2.6 3.14 5.9 3.86 9.14.41 5.14 1.22 10.3.75 15.45a19 19 0 0 1-4.39 7.11c-1.44 1.04-2.64 2.52-4.22 3.3-3.95 2.09-8.23 3.67-12.74 3.96-1.04.12-2.1.09-3.15.11-3.21.13-6.34-.78-9.2-2.17a15 15 0 0 1-3.8-2.23c-2.39-1.5-4.22-3.84-5.75-6.1-.6-.7-1.15-1.67-1.58-2.22a16 16 0 0 1-1.97-4.21 21 21 0 0 1-.82-4.27c-.39-1.3.23-2.8.32-4.1.35-1.32.44-2.49.85-3.69.14-.68.37-1.33.5-1.7.1-.44.34-.93.5-1.46.18-.59.55-1.47.85-2.25.26-.7.52-1.25.79-2 .32-.62.4-1.07.71-1.52.13-.56.49-1 .75-1.64.23-.8.84-1.5 1.01-2.13.68-.98 1.46-2.06 2.35-3.06.31-.44.8-.93 1.02-1.16a17 17 0 0 1 5.53-3.7c.93-.41 1.76-.74 2.8-1.07a14 14 0 0 1 4.34-.77m-30.51 21.52c-1.94 1.27-3.93 2.45-5.83 3.77-2.45 1.55-4.85 3.18-7.29 4.75-.51.49-1.61.57-1.52 1.58.1 2.27.29 4.57.45 6.85.2 2.89.5 5.79.71 8.68.12 1.92.34 3.86.37 5.77.52.25 1.37-.7 2.03-.86 3.48-1.98 6.93-4.03 10.42-6 .59-.45 1.5-.59 1.88-1.25q-.14-1.89-.33-3.78c-.22-1.66-.3-3.3-.4-4.94q0-2.47-.08-4.97c-.08-2.37-.04-4.7-.16-7.08-.11-.8.08-1.92-.25-2.52M32.06 218c-1.5.91-.31 4.21-.56 6.03-.07 1.97.48 3.86.24 5.56q.06 2.75.16 5.53c.05 1.5.02 2.84.03 4.4.1 1.58-.26 3.4-.04 4.97.15.43.19.6.17.63v.01h-.01c-.06-.02-.21-.24-.27-.22q-.05.03 0 .32c-.24 1.79-.22 3.2-1.97 3.8-.57.19-2.03 1.44-2.56 1.23-1.42.69-3.19 1.55-3.8 2-3.37 1.27-6.56 3.03-9.78 4.67-4.75 2.46-9.41 5.12-14.17 7.57-1.65.9-2.55 1.77-4.4 2.34-.21-.37-.3-.5-.36-.5-.13.05.05 1.02-.62.98-.55.53.99.44 1.18.54 5.57-.07 11.16.33 16.74.03 4.14-.6 8.27-.7 12.45-.86 7.17-.37 14.39-.23 21.54-.18 1.24-.44 4.68 1.22 4.18-.84-.12-5.7-.38-11.39-.54-17.08a239 239 0 0 1 .35-18.37c.15-3.9.8-7.73.98-11.62-1.24-.73-3.5-.05-5.1-.23-2.87-.03-5.82-.1-8.67-.25a41 41 0 0 1-5.16-.46m24.97 3c-.15 3.26.35 6.6.15 9.9.08 4.65.31 9.3.12 13.95l-.01.15c15.07-.54 30.19-.98 45.28-1.16 3.06-.1 6.39.2 9.26-.12.47-4.79-.15-9.6-.41-14.38-.9-2.04.4-6.01-1.55-6.92-10.13-.5-20.29-.58-30.43-.79-7.45-.07-14.94-.4-22.4-.63m-.56 28c-.07 1.74-.06 3.48-.1 5.22q-.06 6.82-.37 13.65c1.7.05 3.4.06 5.11.12h2.65c3.13-.13 6.27-.26 9.4-.51.25-.07.71.05.84-.08-.14-2.53-.17-5.06-.2-7.58l-.2-10.7c-1.68.12-3.36.16-5.03.22-1.83.13-3.65.01-5.48-.07-2.2-.09-4.42-.14-6.62-.27m24.42 0c-.28.06-.7-.05-.89.22.31 1.2 1.1 2.24 1.6 3.38 1.27 2.59 2.67 5.12 3.97 7.7.65 1.54 1.72.05 2.82.13 5.66-.6 11.34-.91 17.01-1.26 1.2-.18 2.44.12 3.6-.15.12-.53-1-1.64-1.23-2.47-1.26-2.25-2.34-4.6-3.7-6.79-1.44-.25-2.93-.1-4.4-.23-.86-.29-2.62.38-2.93 0-1.5-.11-3.01-.26-4.51-.09-1.31-.23-2.67-.3-4.01-.33-2.45.03-4.89-.15-7.33-.1m-14.97 1.3 1.42 1.42c.47.1.96.12 1.42.23.36.05.8.23 1.1.25.13.7.2 1.49.34 2.22.45.59 1.01 1.11 1.46 1.7.05.09.02.19.04.23v.01h.01l.01.01q.03 0 .15-.06c-.15.44-.4.88-.61 1.3-.05.2-.38.47-.22.6l.12 1.5c.05.29.02.66.1.86-.63.5-1.32.96-1.94 1.51-.08.6-.06 1.25-.14 1.86-.07.24.06.67-.3.62-.69.16-1.42.2-2.08.4-.23-.05-.22.24-.38.25l-1.92.76c-.15.09-.3 0-.37-.07-.14-.13-.4-.35-.47-.47-.2-.12-.27-.24-.46-.38-.3-.28-.7-.57-.95-.83-.55.07-1.07.24-1.62.31-.24.02-.51.12-.73.1-.1-.14-.1-.42-.17-.56-.03-.15-.15-.39-.15-.58-.14-.22-.11-.53-.24-.78q-.01-.32-.32-.5c-.28-.15-.54-.39-.84-.55-.21-.16-.52-.35-.75-.52-.11-.1-.35-.16-.21-.33.02-.25.07-.21.1-.42.08-.08.03-.16.11-.38.12-.27.2-.59.34-.83-.02-.24.24-.39.12-.63-.24-.34-.47-.76-.67-1.04l-.27-.52c-.03-.17-.26-.33-.22-.5.1-.11.37-.34.45-.48.13-.12.2-.17.34-.4.1-.09.35-.28.37-.34.12-.14.37-.37.36-.43v-.01c.06-.25.06-.56.13-.81-.02-.3.08-.52.08-.79.01-.16.03-.42.08-.54.24-.2.65-.16.97-.24.4-.06.87-.03 1.14-.38q.26-.28.55-.55c.3-.27.53-.52.9-.67.38.17.83.4 1.22.64.3.31.62-.14.92-.23.3-.21.63-.35.93-.57.27-.15.45-.35.75-.4m33.5 12.7q-.29-.01-.5.5c-6.37-.01-12.78.23-19.14.26-.63 3.93-.42 8.02-.72 12.02-.85 16.25-1.5 32.52-1.86 48.8-.57 12.82-.65 25.67-1.14 38.5C75.16 378.03 74.23 393 74 408c10.34-.66 20.69-1.24 30.99-2.34.08-3.94-.21-7.88-.27-11.83-.08-13.78 0-27.57-.75-41.34-1.71-29.17-3.31-58.36-3.7-87.58.38-.66-.27-1.92-.84-1.91M39 272q-.37-.01-.63.13c-.09.66.08 1.4.17 2.07.37.32-.05 1.69.56 1.07.8-.22 1.69.21 2.52.24.59.02 1.13.25 1.67.29.6.43 1.55.61 1.89 1.27.3.36 1.08.9.98 1.24.74.68 1.23 1.53 1.82 2.33.13.44.2.94.53 1.18.1 1.4.29 2.83-.22 4.18-.55 1.7-1.43 3.3-2.38 4.84a5 5 0 0 1-2.5 2.4 16 16 0 0 1-5.64 2.16c-.94.65-2.13.17-3.13-.08-.64-.23-1.2-.45-1.83-.72-.83-.25-1.54-.82-2.31-1.1a4 4 0 0 1-1.33-1.2c-.32-.6-.9-1.12-1.2-1.76-.32-.26-.46-.82-.71-1.1a7 7 0 0 1-1.02-3.95c.1-.54-.34-1.33.09-1.71a3.6 3.6 0 0 1 .51-2.04c.81-1.57 2.06-2.85 3.24-4.17.96-1.17 2.47-1.58 3.9-1.98.67-.1 1.44-.3.95-1.1-.28-.6 0-1.42-.55-1.89-3.84.46-7.7.68-11.53 1.14-.43.04-.97.09-1.05.12v.01c.03.02.2.04.6.05-1.79.15-3.59.17-5.35.5-.11 2.42.02 4.88-.02 7.3-.02.52.07 1.09.1 1.63-.21.83.86.64 1.41.66.73.1 1.6-.24 2.21.2a50 50 0 0 0 .48 3.16c.18.58.23.98.43 1.56.3.54.32 1.22.71 1.68.21.55.49 1.08.92 1.52q1.1 1.67 2.6 3.05c1.02 1.27 2.66 1.72 4.12 2.34 1.53.8 3.28.39 4.91.27 2.22-.29 4.43-.61 6.66-.8 2.32-.1 4.51-.91 6.6-1.82a19 19 0 0 0 6.07-5.62c.56-1 1.05-2.1 1.38-3.16.52-1.37.83-2.8 1.03-4.23.05-.68 1.25-.2 1.81-.36 2.24.18 4.5.3 6.73.58.74.48.61.18.6-.23.17-.74 0-1.6.04-2.4.13-2.4 0-4.8.16-7.2-3.02-.32-6.06-.27-9.1-.33-5.57-.12-11.14.06-16.7-.2-.37.04-.8-.03-1.2-.02m-39.13 1c-.53-.03-1.08.1-.79 1.1.21 4.29.18 8.6.27 12.9.04 1.08-.03 2.2.18 3.25.42.72 1.24.59 1.82.91 3 .81 5.98 1.88 8.96 2.84.17-.46.41-.92.38-1.48.33-.67-.12-1.64.15-2.35q.07-1.49.08-2.97c-.09-3.63.05-7.26.06-10.89-.05-1 .16-2.15-.16-3.05-.72-.22-1.52.1-2.26-.17-1.17-.09-2.34.22-3.5.12-1.57-.16-3.14-.06-4.7-.15q-.22-.04-.49-.06m15.95 21q-.2-.01-.25.1c-.04.1-1.18.81-2.24 1.4q-1.34.76-2.62 1.59a7 7 0 0 0-.74.52c-.23.2-.7.28-.77.13a2 2 0 0 0-.55-.25 87 87 0 0 1-7.11-2.64q-.45-.19-.52-.14l-.01.01-.01.03c0 .22-1.43 3.02-1.74 3.41-.05.06-.39.7-.77 1.41-.37.72-.74 1.38-.81 1.47-.5.65-3.35 1-8.62 2.95-.75.27-1.27.74-1.15 1.03.04.09.15.52.25.96.32 1.36.52 2.1.66 2.4.28.61.69 2.54.79 2.66q.09.02.1.25c0 .13.04.27.1.3.18.12.1.62-.21 1.16-.63 1.15-1.19 2.23-2.06 3.3-.04.03-.13.16-.2.3s-.18.29-.23.35a7 7 0 0 0-1.1 2.02c0 .17.18.71.4 1.19.81 1.74 1.51 3.47 2.52 5.16.2.23.51.8.5.89h-.01v.01h-.01c-.06.05-.14.51-.21 1.08l-.17 1.33a25 25 0 0 0-.27 2.63c0 .6.02.7.26.94.15.14.49.37.76.51s.5.28.54.31c.05.07.27.18 1.77.93.43.22.82.44.85.5q.07.08.25.09t.23.07c.03.08 2.15 1.13 2.28 1.13.14 0 .53.47.82 1 .58 1.05 1.22 1.97 1.77 3 .42.7.67 1.13.9 1.55.28.5.73.79 1.14.71l2.1-.26a28 28 0 0 0 4.67-.87c.52-.17 1.1-.18 1.1-.02a73 73 0 0 1 4.19 1.82c.34.16.7.29.76.29s.24.07.38.14c.54.3.65.23 1.66-1.1.53-.7 1.7-2.16 2.59-3.26l1.63-2 .53.06c1.27.16 2.76.57 4.26.52l.88-.03.39-.55c.2-.3.38-.58.38-.62 0-.03.17-.33.37-.65.68-1.16 1.17-2.4 1.75-3.6.08-.18.15-.37.15-.43.02-.13.8-.71.95-.71.05 0 .28-.13.52-.28.89-.6 3.71-1.93 4.12-2.32.19-.19.19-.2-.13-1.17-.17-.55-.57-1.96-.88-3.14l-.63-2.37q-.07-.2.66-1.68a39 39 0 0 0 1.5-3.32c.42-.98.77-1.88.77-2 0-.17-.15-.35-.54-.62-.3-.2-.7-.52-.9-.7-.66-.59-1.6-1.14-3.76-2.77-.2-.15-.46-.27-.56-.27-.22 0-.56-.56-.4-.65.24-.25.03-6.82-.24-7.36-.09-.19-.24-.27-.58-.33a302 302 0 0 1-7.12-1.53 1 1 0 0 1-.46-.33c-.07-.11-3.75-5.1-4.02-5.4-.12-.15-.4-.24-.6-.24m50.07 0q-.84 0-1.67.1c-.35.01-.72.11-1.08.14-.37.05-.77.08-1.15.19-.76.1-1.51.29-2.26.45-.28.2-.67-.2-.88.31-.34 1.93-.62 3.94-.98 5.85-.17 1.28-.39 2.52-.57 3.79-.24 1.44-.44 2.93-.68 4.37a38 38 0 0 1-.54 3.27c0 .07-.11.32-.07.4l.02.01c.35.15.71-.03 1.07.11.31-.01.67-.07.94-.04s.6 0 .88-.02c.25.13.61-.22.83.07.36-.07.74-.03 1.11-.1q.4.06.8-.02c.18.11.56-.05.83.03.33 0 .6-.08.93 0q.45-.06.94 0c.3-.02.61.02.9-.06.28 0 .6.1.84-.01q.8-.04 1.6-.12.41 0 .75-.07c.34.04.68 0 1.02 0 .7 0 1.4.05 2.1.03.24-.07.55-.13.76-.09.33.01.62-.56.8-1.28a22 22 0 0 1 .29-2.02q.56-3.24 1.19-6.42c0-.48.14-.63.21-1.2.14-.67.3-1.3.4-2 .1-.68.29-1.28.38-1.93.1-.76.3-1.48.4-2.18q-1.12-.12-2.25-.37c-.96-.19-1.92-.48-2.88-.6q-2.49-.59-4.98-.6" clip-path="url(#a)"/></svg>