<svg xmlns="http://www.w3.org/2000/svg" viewBox="0 0 100 640"><path fill="#044e63" d="M0 0v29l4.6.4c3.7.5 7.7.2 11.3 1.3.3 5.7 1.5 11.3 2.3 16.9q2 8.8 5 17.2c.4 2 1.8 3.5 1.9 5 3 5 7.7 8.7 12.7 11.7 7.7 3.1 15.5 6.4 23.8 7.4 5.6-.1 11.2.5 16.7-.6a62 62 0 0 0 18.2-5.5l3.5-2.1V55.6l-.4 1a10 10 0 0 1-2.8 3.8c-1.6 3.2-4.8 5-7.4 7.2-3.5 2.5-7.6 3.5-11.5 5-4.4 1.8-9 1-13.6.8-3.5-.5-7.5.2-10.8-1.5-2.7-.5-4.2-2.8-6-4.7q-4.6-6.7-8.4-14c-2.1-3-1.4-7.2-3.7-10l.4-10.4a28 28 0 0 1 5-10.7c.9-1.6 2.3-3.2 3.1-4q2-3.6 5-6.6c1-1.5 3.4-2.2 4.5-3 3.4-.9 6.8-2.5 10.4-3q2.6-.7 5.1-.5 2.7.1 5.2.5c5.2 1.2 10.1 3.6 15.2 5.2 3 2.7 6.4 5.3 8.4 9l2.3 4.2V0zm48.7 100a22 22 0 0 0-3.4 2.7l-3 2.4c-8 6.9-16.6 13.1-24.6 20l-4.6 3.7L0 139.4v56.5l17.5 21.2a498 498 0 0 0 19.9 22c6.5 7 7 7.4 8 7.4l33 1.2 21.6.8v-84.9c-5-7.7-10-15.5-15.6-22.6q-1-1.2-1.8-2.5c0-.7-12.5-16.4-13.4-17.4a194 194 0 0 0-17-17.6q-.5 0-.5-.2c0-.3-2.7-3.3-3-3.3M100 269.9l-5.8 3.4c-12.5 7.7-25.9 14-39 20.8-6 2.2-11.2 5.4-17 8-5.3 0 0 4.2-.7 7C26.2 322.3 12.8 333 0 344.3v113c20.2-15.2 40.3-30.7 60.6-45.6l39.4-30.8zm0 160a2397 2397 0 0 1-73.4 54.9L0 504.8v114.9l23.3-20.6c5.3-5.4 11.3-9.9 16.6-15.3 8.4-6.9 16.4-14.3 24.7-21.3A438 438 0 0 1 87.4 543a761 761 0 0 1-21.7-26.4c-4.3-6.9-15.3-15.6-14.4-21.6 15.6-14 32.5-26.5 48.7-40zM6 633.4H0v6.6h100v-5.7q-18.4.2-36.9.1c-16.9-.5-33.9-.3-50.9-.9q-3-.3-6.1-.1"/></svg>
