<svg fill="none" version="1.1" viewBox="0 0 100 640" xmlns="http://www.w3.org/2000/svg">
 <path d="m67.688-104.63c-0.17321 0.00894-0.33416 0.04247-0.50586 0.08594-5.8481 1.4796-29.557 6.9407-45.002 10.367-18.309 4.0619-43.251 9.7142-45.805 10.381l-2.5996 0.67969 2.6074 10.803c2.294 9.4974 4.8828 20.951 7.7168 34.143 0.47638 2.2151 1.3029 6.4023 1.8379 9.3047 1.7255 9.2184 3.6499 18.369 5.4219 27.578l0.75781 3.6934 1.8398 1.1309c1.0125 0.62111 1.871 1.2439 1.9082 1.3828 0.037262 0.13908 0.66281 0.64899 1.3906 1.1348 19.315 13.323 36.432 31.507 55.281 45.852 1.0671 0.91434 2.3914 1.6778 3.2969 2.666 0.18978 0.67696 10.604 8.5198 17.795 13.803-9.9061 8.2318-19.834 16.439-29.883 24.502-24.088 20.41-47.556 41.54-72.354 61.123-12.283 9.8996-24.762 19.623-37.77 28.609-0.5686 0.82593 1.471 2.5826 2.0156 3.4766 17.36 19.56 33.783 39.885 50.682 59.824 10.154-6.9468 21.096-12.719 31.287-19.592 11.53-7.9108 24.039-14.516 36.238-21.521 5.5762-2.4107 10.521-5.7153 15.914-8.5195 5.0478-0.11392-0.16602-3.9484 0.41602-6.6133 11.917-15.268 26.727-27.542 40.184-41.199 4.7837-5.361 10.343-9.9093 15.137-15.242 7.6762-7.0121 15.047-14.354 22.615-21.48 6.6962-6.8018 13.778-13.204 20.926-19.537-7.4418-7.8842-14.625-16.023-21.779-24.18-1.6775-2.4883-4.3247-5.1589-6.9102-7.8359 2.6659-3.6232 5.3023-7.2672 7.8496-10.969 0.98181-1.2863 3.173-4.2525 4.8691-6.5918 9.0199-12.439 17.935-24.823 26.971-37.219 3.1489-2.8898 6.2626-5.8181 9.3223-8.8066 25.93-24.078 52.178-47.804 78.488-71.457 0.73951-1.6368 4.8563-2.2663 3.1562-4.6289-2.5635-2.6941-6.3476-9.1531-8.3828-8.7246-9.8469 8.9925-20.957 16.621-31.113 25.299-15.547 12.967-30.951 26.102-46.377 39.211-3.2038-2.5135-6.7106-5.3335-9.7148-7.8359-2.4269-2.0206-14.331-11.345-15.008-11.756-0.29962-0.18143-1.12-0.72801-1.8242-1.2148-0.70398-0.48669-3.5361-2.39-6.293-4.2285-7.5569-5.0396-27.436-19.395-36.949-26.096-11.285-7.9354-22.959-15.293-34.697-22.545-9.9546-6.245-11.745-7.3184-12.957-7.2559zm-24.961 352.65c-2.2397 0.04522-4.4845 0.14392-6.7109 0.03516-3.7772-0.18258-7.5526 0.36407-11.336 0.0957-7.0381-0.49927-13.332 4.6941-19.832 7.4492-2.9208 1.2389-5.4883 3.1029-8.1074 4.7773-2.9854 1.9093-5.458 4.2262-8.0117 6.6484-5.3725 5.0961-8.9942 11.871-11.588 18.795-1.1307 3.0195-1.7653 6.1605-2.5352 9.2793-0.82819 3.3541-1.5778 6.6157-2.7207 9.8379-0.9772 2.7538-0.83752 5.899-0.30274 8.5996 0.63623 3.2156 2.0437 6.4707 2.0312 9.8555-0.020172 5.6527 4.1985 10.516 6.7715 15.553 1.1931 2.3347 3.3586 4.6843 4.4648 6.6953 1.4652 2.6646 4.1067 4.3152 6.2773 6.0801 2.6299 2.1368 4.7897 4.7986 7.1641 6.9492 2.6806 1.455 5.6047 2.8894 8.6309 3.418 5.322 0.92988 10.15 3.757 15.408 5.0391 3.2081 0.78314 6.4724 1.3507 9.7773 1.6211 3.4934 0.28638 6.6733-0.77839 10.047-1.2988 3.8589-0.59705 7.5759-1.8365 11.217-3.2891 3.1639-1.2619 6.8957-1.3479 9.6406-3.4648 4.8829-3.7654 9.4706-7.9221 12.812-13.094 4.3044-6.6604 9.016-13.154 11.926-20.594 3.1481-8.0512 3.0527-16.693 3.3457-25.104 0.079468-2.2844-0.54132-3.1547-1.3047-5.5117-1.6956-5.2332-2.5132-10.854-5.457-15.6-1.585-2.5548-3.1658-5.0836-4.7266-7.6074-1.8724-3.0272-4.1177-5.6139-5.4805-8.8887-1.1807-2.8387-3.2577-5.1768-5.4004-7.416-2.8283-2.9554-5.6588-5.2212-9.1992-6.6426-3.273-1.3146-6.7358-1.4381-10.121-1.9336-2.2057-0.32285-4.44-0.33038-6.6797-0.28516zm-117.29 63.178c-0.79893 0.02534-1.9151 1.7402-2.5645 2.2812-14.977 17.855-30.747 34.986-46.117 52.484 7.4207 8.0206 13.909 16.888 21.27 24.951 8.4462 9.1046 15.868 19.244 23.604 29.057 2.8395 4.5897 6.3847 8.506 9.5469 12.883 0.7503 4.4272 3.455-0.66687 5.875-0.50586 14.97 8.476 27.679 19.893 41.43 29.936 5.3337 3.5035 10.051 7.7947 15.361 11.311 7.1591 5.8315 14.569 11.35 21.814 17.072 6.8478 4.9968 13.395 10.385 19.889 15.842 5.9796-7.5878 12.216-14.981 18.473-22.352 5.1141-4.6746 10.469-15.24 15.67-15.502 18.088 13.709 34.535 29.408 52.602 43.143 24.528 19.647 48.786 39.621 72.988 59.658 1.5356 0.43518 2.6204 3.9754 4.4805 2.168 2.0407-2.6109 7.2368-6.7908 6.5977-8.5254-9.1813-7.4809-17.325-16.254-26.27-24.049-35.31-31.521-71.522-62.009-105.87-94.629-18.354-16.819-37.139-33.151-55.395-50.084-21.062-18.51-42.679-36.378-63.105-55.621-10.293-9.5055-20.456-19.206-30.039-29.469-0.074999-0.03671-0.15368-0.05145-0.23633-0.04882zm76.16 203.81c-3.8223-0.01283-7.6323 0.1492-11.383 0.90039-8.588 1.5994-17.234 3.3889-24.941 7.6406-9.2389 6.036-18.698 12.88-23.449 23.105-1.614 2.0961-2.0905 4.8095-3.4531 6.7559-1.3439 3.9134-3.6357 7.6143-4.375 11.664-3.3185 9.9102-5.9837 20.219-8.6367 30.387-1.1826 2.5369-5.319-0.02233-7.7168 0.41993-2.2088 0.4071-6.5145-1.9494-7.3672 0.24609-1.9146 12.721-2.7364 25.61-5.4023 38.229-0.47824 2.0225-0.71252 4.0651-0.87305 6.1309 15.609 0.20746 31.221 0.22448 46.824 0.77343 20.066-0.03686 40.148-0.45818 60.221-0.13281 23.308 0.59449 46.625 0.39294 69.93 1.127 7.252 0.65707 14.632-0.72607 21.785 0.75391 0.84064-14.925 1.9635-29.832 3.2402-44.729-4.8382-0.47675-9.6814-0.893-14.529-1.2656-5.1552-0.72833-10.64-0.20361-15.572-1.7773-0.48883-7.843-2.0505-15.553-3.2285-23.311-1.6575-8.0705-4.017-15.866-6.8418-23.555-0.4975-2.7051-2.4086-4.8847-2.6211-6.9199-4.0558-6.863-10.615-11.881-17.336-16.072-10.575-4.3703-21.324-8.8783-32.816-10.229-3.7986 0.05811-7.6347-0.12975-11.457-0.14258zm-1.6445 20.951c3.1253 0.00201 6.2851 0.35724 9.4004 0.53711 4.8773 0.68829 10.38-0.312 14.783 2.0606 3.8192 0.66352 5.8723 3.8782 8.3477 6.4824 4.1233 6.1939 8.1724 12.549 11.521 19.215 2.8549 4.1538 1.9619 9.8826 5.1621 13.738-0.20282 4.802-0.4046 9.6049-0.60742 14.406-1.1987 5.2516-3.564 10.325-6.8613 14.664-1.2279 2.1851-3.2211 4.4544-4.2344 5.5898-1.6899 3.2396-4.0787 6.3713-6.8379 8.9082-1.4929 2.2477-4.6998 3.2098-6.1914 4.3203-4.7619 1.1234-9.4321 3.3148-14.398 3.9551-4.6445 1.5144-9.3954 0.66029-14.129 0.13868-7.1135-1.6714-13.81-4.9883-20.82-7.1445-4.154-3.7668-8.8819-7.3944-11.648-12.43-3.1408-5.6058-6.4106-11.337-7.7148-17.684-1.9559-4.7653-1.3649-9.641-1.2344-14.639 2.6141-5.9038 3.9607-12.42 6.373-18.463 0.80667-2.1026 2.6598-4.3901 3.8125-5.2578 2.2452-4.2997 6.6174-6.881 10.232-9.9394 4.6794-3.4071 10.469-4.8121 15.85-6.877 2.9793-1.2328 6.07-1.584 9.1953-1.582z" clip-path="url(#clipPath36)" fill="#fbd2d9"/>
 <defs>
  <clipPath id="clipPath36">
   <rect width="100" height="640" rx="0" ry="0"/>
  </clipPath>
 </defs>
</svg>
