<svg width="3" height="3" version="1.1" xmlns="http://www.w3.org/2000/svg">
  <defs>
    <clipPath id="rect-01" clipPathUnits="objectBoundingBox">
      <path d="m0.00538279 0.99385901c0.0035-0.19379981-6.7999e-4 -0.38745962-0.00215999-0.58125942 0.00363999-0.13721987-0.0055-0.27672973-0.0026700006-0.41259959 0.13574986 0.00961999 0.27192973 0.02319998 0.40731959 0.02647997 0.18452982 0.00878 0.36924963 0.01145999 0.55341945 0.03256997 0.0336647 0.03606045 0.0420238 0.73805457 0.03552 0.88761911-0.0521499 0.0133-0.11274988 9.7e-4 -0.16827983 0.00483-0.27446972 0.00784-0.54932945 0.02586-0.82329918 0.0484999z"/>
    </clipPath>
    <clipPath id="rect-02" clipPathUnits="objectBoundingBox">
      <path d="m0.94481996 0.9981219c0.02757-0.096681 0.01507-0.2343201 0.03064-0.34626 0.01127-0.2137701 0.02372-0.4317001 0.02454-0.64358005-0.33267 0.011485-0.66747-0.020665-0.99999996-0.002696 0.00716 0.32257995 0.01474 0.64635005 0.00407 0.96922005 0.3046 0.036109 0.61564 0.012197 0.92249 0.025195z"/>
    </clipPath>
    <clipPath id="circle-01" clipPathUnits="objectBoundingBox">
      <path d="m0.84537 0.1354c0.01642 0.02094 0.03035 0.04572 0.04888 0.06691 0.0153 0.0175 0.03463 0.03475 0.04284 0.05855 0.0062 0.01796 0.02061 0.04021 0.02706 0.06094 0.01391 0.0447 0.04159 0.09036 0.03331 0.13633-5e-3 0.02753 0.0019 0.05605 0.0025 0.08313 5.1596e-4 0.02275-0.0028 0.04854-0.01482 0.06953-0.01401 0.02456-0.02485 0.05002-0.03646 0.07611-0.0108 0.02426-0.02051 0.04891-0.03413 0.07185-0.03123 0.05258-0.07069 0.10247-0.12213 0.13617-0.02445 0.01602-0.04808 0.03129-0.07533 0.04251-0.02392 0.0098-0.04768 0.0213-0.07344 0.02716-0.05734 0.01302-0.11648 0.04616-0.17358 0.03192-0.03068-0.0077-0.06248-0.0086-0.09323-0.01561-0.03626-0.0082-0.07432-0.0098-0.10962-0.0214-0.02709-0.0089-0.05536-0.01495-0.08036-0.03038-0.02704-0.01669-0.04703-0.03921-0.06602-0.06735-0.01439-0.02132-0.0281-0.04334-0.03373-0.06815-0.0065-0.02862-0.02122-0.05291-0.03225-0.08025-0.0092-0.0228-0.01856-0.04566-0.02791-0.06874-0.01737-0.04287-0.01602-0.08979-0.02244-0.13482-0.0029-0.02029-0.0068-0.02827-0.0028-0.04674 0.01447-0.06802 0.02608-0.13846 0.0635-0.19942 0.03457-0.05633 0.08258-0.10236 0.12749-0.15033 0.03487-0.03725 0.0785-0.06443 0.12402-0.08801 0.02558-0.01325 0.05635-0.0086 0.08415-0.01425 0.03198-0.0065 0.06429-0.01127 0.09684-0.01054 0.02845 6.38e-4 0.0561-0.0034 0.08439 4e-3 0.02676 7e-3 0.05274 0.01632 0.07797 0.02732 0.04134 0.01804 0.07694 0.04802 0.11932 0.06328 0.02409 0.0087 0.04605 0.02459 0.06598 0.0403z"/>
    </clipPath>
    <clipPath id="circle-02" clipPathUnits="objectBoundingBox">
      <path d="m0.99852 0.48358c0.0055 0.03453-0.0058 0.0678-0.0049 0.10776-0.0095 0.04346-0.02963 0.08518-0.04651 0.12606-0.03061 0.07465-0.07169 0.14854-0.13793 0.19236-0.04434 0.03155-0.09622 0.0489-0.14607 0.0679-0.05902 0.01248-0.11947 0.01041-0.17876 0.02062-0.03786 0.0024-0.07547 0.0025-0.11329-0.0011-0.03474-0.0064-0.06765-0.02058-0.09884-0.03952-0.06253-0.03619-0.12508-0.07273-0.177-0.12462-0.02087-0.02399-0.05121-0.04491-0.0672-0.07446-0.01637-0.05859-0.03127-0.11869-0.02738-0.18048-0.0023-0.04054 0.0032-0.08116 0.0039-0.12128 0.0065-0.04305 8e-3 -0.08667 0.0308-0.1245 0.01888-0.044 0.0491-0.07996 0.07546-0.1188 0.03463-0.04948 0.07233-0.09812 0.12156-0.13118 0.05344-0.03084 0.10813-0.06095 0.16829-0.0735 0.03452-0.0087 0.07183-0.01216 0.106-5e-3 0.04345 0.0038 0.08685 0.01462 0.12872 0.02765 0.03459 0.0093 0.06871 0.02085 0.10174 0.03208 0.03626 0.01441 0.06693 0.04003 0.09337 0.06785 0.0096 0.01217 0.0272 0.03238 0.04358 0.05099 0.02413 0.03497 0.05204 0.06843 0.06692 0.10949 0.0063 0.04117 0.03267 0.07245 0.03888 0.11272 8.02e-4 0.02586 0.02 0.04953 0.01862 0.07892z"/>
    </clipPath>
  </defs>
</svg>

