<svg width="0" height="0" version="1.1" xmlns="http://www.w3.org/2000/svg">
  <defs>
    <clipPath id="rect-01" clipPathUnits="objectBoundingBox">
      <path d="m0.00538279 0.99385901c0.0035-0.19379981-6.7999e-4 -0.38745962-0.00215999-0.58125942 0.00363999-0.13721987-0.0055-0.27672973-0.0026700006-0.41259959 0.13574986 0.00961999 0.27192973 0.02319998 0.40731959 0.02647997 0.18452982 0.00878 0.36924963 0.01145999 0.55341945 0.03256997 0.03541 0.03792996 0.01183 0.2035198 0.02808 0.28866971 0.00485 0.1991798 0.01612 0.3993396 0.00744 0.5989494-0.0521499 0.0133-0.11274988 9.7e-4 -0.16827983 0.00483-0.27446972 0.00784-0.54932945 0.02586-0.82329918 0.0484999z" stroke-width=".999999"/>
    </clipPath>
    <clipPath id="rect-02" clipPathUnits="objectBoundingBox">
      <path d="m0.94482 0.99794174c0.02757-0.096681 0.01507-0.23432 0.03064-0.34626 0.01127-0.21377 0.02372-0.4317 0.02454-0.64358-0.33267 0.011485-0.66747-0.020665-1-0.0026959 0.0071599 0.32258 0.01474 0.64635 0.00407 0.96922 0.3046 0.036109 0.61564 0.012197 0.92249 0.025195z"/>
    </clipPath>
  </defs>
</svg>
