<svg xmlns="http://www.w3.org/2000/svg" width="338" height="96" viewBox="0 0 338 96" aria-hidden="true"><path d="M6 0a6 6 0 0 0-6 6v84a6 6 0 0 0 6 6h84.1a6 6 0 0 0 6-6V6a6 6 0 0 0-6-6zm13.1 19.3h39.7v21.3H40.5v3h12.2V59H40.5v18H19zm42.7 0h15.3v39.6H61.8zm-39.7 3v51.5h15.3v-18h12.2v-9H37.4v-9.2h18.3V22.3zm42.8 0V56H74V22.3zm-3 39.7H77v14.8H61.8zm3 3v8.8H74V65z"/><path fill="#313130" d="M150.7 19.3V28h-27.3v15.6h23v8.6h-23v24.6H114V19.3zm19.3 0v48.8h25.9v8.7h-35.3V19.3zm52.3 58.4q-8.8 0-13.8-5.1-4.8-5-4.8-14.5V19.3h9.3v38.8q0 6.2 2 8.7t7.3 2.4h.5q5.2 0 7.2-2.4 2.1-2.5 2.1-8.7V19.3h9.3v38.8q0 9.4-5 14.5t-13.6 5zm46 0q-9 0-14.3-5.4t-5.3-15.7v-17q0-10.3 5.3-15.7t14.2-5.4h.5q9 0 14.3 5.4t5.3 15.7h-9.4q0-7-2.4-9.8t-7.8-2.9h-.5q-5.4 0-7.8 2.9-2.4 2.8-2.4 9.8v17q0 7 2.4 9.8t7.8 2.8h.5q5.4 0 7.8-2.8t2.4-9.8h9.4q0 10.3-5.3 15.7t-14.3 5.4zm67.6-58.4L319 43l18.5 33.8h-10l-13.7-25.1h-1l-6.9 9.6v15.5h-9.2V19.3h9.2v26.5h1l18-26.5z" style="white-space:pre"/></svg>
