<svg xmlns="http://www.w3.org/2000/svg" fill="none" viewBox="0 0 128 174"><path fill="#313130" d="M8 0a8 8 0 0 0-8 8v111.98a8 8 0 0 0 8 8h112a8 8 0 0 0 8-8V8a8 8 0 0 0-8-8zm17.43 25.71h52.82v28.44H53.87v4.06h16.26v20.32H53.87v23.92H25.43zm56.89 0h20.32v52.82H82.32zm-52.83 4.06V98.4h20.32V74.46h16.25V62.28H49.81v-12.2H74.2v-20.3zm56.89 0v44.7h12.2v-44.7zM82.32 82.6h20.32v19.86H82.32zm4.06 4.06V98.4h12.2V86.65zm1.94 53.46q-5.11 0-8.16 3.09-3.03 3.09-3.04 8.98v9.75q0 5.9 3.04 8.98t8.16 3.09h.29q5.1 0 8.15-3.09 3.04-3.09 3.04-8.98h-5.36q0 4.01-1.4 5.65-1.35 1.6-4.43 1.6h-.3q-3.08 0-4.48-1.6-1.35-1.65-1.35-5.65v-9.75q0-4 1.35-5.6 1.4-1.65 4.49-1.64h.29q3.08 0 4.44 1.64 1.4 1.6 1.4 5.6h5.35q0-5.9-3.04-8.98-3.04-3.1-8.15-3.1zM0 140.59v32.93h5.36v-14.1h13.17v-4.92H5.36v-8.94h15.68v-4.97zm26.7 0v32.93h20.17v-4.98h-14.8V140.6zm24.64 0v22.21q0 5.4 2.8 8.3Q56.97 174 62 174h.29q5.01 0 7.82-2.9 2.84-2.9 2.84-8.3v-22.2h-5.3v22.2q0 3.57-1.21 4.97-1.16 1.4-4.15 1.4H62q-3 0-4.15-1.4t-1.16-4.97v-22.2zm53.26 0v32.93h5.3v-8.89l3.92-5.5h.58l7.81 14.39h5.8l-10.62-19.36 9.65-13.57h-6.23l-10.37 15.16h-.53V140.6z" style="white-space:pre"/></svg>